<svg width="96" height="96" xmlns="http://www.w3.org/2000/svg" xmlns:xlink="http://www.w3.org/1999/xlink" xml:space="preserve" overflow="hidden"><defs><clipPath id="clip0"><rect x="552" y="97" width="96" height="96"/></clipPath></defs><g clip-path="url(#clip0)" transform="translate(-552 -97)"><path d="M608 155 560 155 560 123 608 123 608 155ZM610 117 558 117C555.8 117 554 118.8 554 121L554 157C554 159.2 555.8 161 558 161L578 161 578 167 569 167 569 173 599 173 599 167 590 167 590 161 610 161C612.2 161 614 159.2 614 157L614 121C614 118.8 612.2 117 610 117Z" fill="#42BFF9"/><path d="M642 127 622 127 622 121 642 121 642 127ZM642 137 622 137 622 131 642 131 642 137ZM632 167C630.3 167 629 165.7 629 164 629 162.3 630.3 161 632 161 633.7 161 635 162.3 635 164 635 165.7 633.7 167 632 167ZM642 117 622 117C619.8 117 618 118.8 618 121L618 169C618 171.2 619.8 173 622 173L642 173C644.2 173 646 171.2 646 169L646 121C646 118.8 644.2 117 642 117Z" fill="#42BFF9"/></g></svg>