<svg width="96" height="96" xmlns="http://www.w3.org/2000/svg" xmlns:xlink="http://www.w3.org/1999/xlink" xml:space="preserve" overflow="hidden"><defs><clipPath id="clip0"><rect x="770" y="96" width="96" height="96"/></clipPath></defs><g clip-path="url(#clip0)" transform="translate(-770 -96)"><path d="M804.59 160.41 793.17 149 804.59 137.59 807.41 140.41 798.83 149 807.41 157.59 804.59 160.41Z" fill="#42BFF9"/><path d="M831.41 160.41 828.59 157.59 837.17 149 828.59 140.41 831.41 137.59 842.83 149 831.41 160.41Z" fill="#42BFF9"/><path d="M811.301 160.322 820.869 137.236 824.564 138.767 814.997 161.853Z" fill="#42BFF9"/><path d="M778 113 778 175 858 175 858 113ZM847 119C848.105 119 849 119.895 849 121 849 122.105 848.105 123 847 123 845.895 123 845 122.105 845 121 845 119.895 845.895 119 847 119ZM840 119C841.105 119 842 119.895 842 121 842 122.105 841.105 123 840 123 838.895 123 838 122.105 838 121 838 119.895 838.895 119 840 119ZM833 119C834.105 119 835 119.895 835 121 835 122.105 834.105 123 833 123 831.895 123 831 122.105 831 121 831 119.895 831.895 119 833 119ZM852 169 784 169 784 129 852 129Z" fill="#42BFF9"/></g></svg>